<svg xmlns="http://www.w3.org/2000/svg" viewBox="0 0 294.81 48.02" height="50" width="50"><defs><style>.cls-1{fill:#ffffff;}</style></defs><title>アセット 1</title><g id="レイヤー_2" data-name="レイヤー 2"><g id="レイヤー_2のコピー" data-name="レイヤー 2のコピー"><rect class="cls-1" x="13.23" y="16.01" width="3.97" height="12.82"/><rect class="cls-1" x="24.08" y="16.01" width="3.97" height="12.82"/><path class="cls-1" d="M82.75,10.55v4.68c0,7.25-5.23,8.83-9.37,8.83H60.76V39.44H56.87V1.77H73.38C77.52,1.77,82.75,3.3,82.75,10.55ZM73.38,5.13H60.71V20.66H73.43c3.41,0,5.33-2.12,5.33-5.62V10.75C78.76,7.25,76.84,5.13,73.38,5.13Z"/><path class="cls-1" d="M102.15,5.42H98.3V0h3.85Zm0,34H98.3V10.35h3.85Z"/><path class="cls-1" d="M135.34,48h-14l-.4-3.11h14.25c3,0,3.5-2,3.5-4.68V36.78a7,7,0,0,1-5.87,2.56h-4.43c-5.13,0-9.07-1.92-9.07-7.64V18.24c0-4.34,2-6.31,4.73-7.2a17.06,17.06,0,0,1,4.58-.64c1.63-.1,3.31-.05,4.88-.05,5.13,0,9.12,2.17,9.12,7.74V40.18C142.68,45,140.46,48,135.34,48Zm-1.78-34.41h-4.24c-3.89,0-6,.69-6,5.08V31.21c0,3.8,1.53,5,5.08,5h3.45c3.89,0,6.85-1.29,6.85-5.72V18.63C138.74,14.84,137.11,13.61,133.56,13.61Z"/><path class="cls-1" d="M186.78,11.73V29.48c0,6.66-3.69,10-10.89,10h-15V1.77h15C183.09,1.77,186.78,5,186.78,11.73Zm-10.94-6.6h-11v31H176c4.58,0,6.8-2.42,6.8-7V12.52C182.79,8,180.47,5.13,175.84,5.13Z"/><path class="cls-1" d="M225.8,17.9V39.44h-3.45l-.19-3.89c-2.37,3-5.82,3.94-9.62,3.94-5.47,0-9.41-2.27-9.41-8.38,0-5.57,2.9-8,6.75-9A24.76,24.76,0,0,1,216,21.4c2.12,0,4.19,0,6,.1V17.94c0-3.79-3.45-4.48-6.66-4.48h-9.76V10.35h9.91C220.77,10.35,225.8,11.78,225.8,17.9Zm-18.68,13c0,4.19,2.66,5.42,6.21,5.42a11.52,11.52,0,0,0,8.73-3.74V24.36H215.5C210.91,24.36,207.12,25.34,207.12,30.91Z"/><path class="cls-1" d="M258.07,13.41h-8.68V31.7c0,2.66.59,4.39,3.55,4.39h5l.1,3.35h-5.28c-5,0-7.3-2.42-7.3-7.74V13.41h-4.33v-3h4.38l.2-7.25h3.65v7.25h8.68Z"/><path class="cls-1" d="M294.81,17.9V39.44h-3.45l-.2-3.89c-2.36,3-5.81,3.94-9.61,3.94-5.47,0-9.42-2.27-9.42-8.38,0-5.57,2.91-8,6.76-9a24.76,24.76,0,0,1,6.16-.69c2.12,0,4.19,0,6,.1V17.94c0-3.79-3.45-4.48-6.66-4.48h-9.76V10.35h9.91C289.78,10.35,294.81,11.78,294.81,17.9Zm-18.68,13c0,4.19,2.66,5.42,6.21,5.42a11.52,11.52,0,0,0,8.73-3.74V24.36h-6.56C279.92,24.36,276.13,25.34,276.13,30.91Z"/><path class="cls-1" d="M20.64,1.78A20.64,20.64,0,1,0,41.28,22.42,20.64,20.64,0,0,0,20.64,1.78Zm0,37.5A16.87,16.87,0,1,1,37.5,22.42,16.86,16.86,0,0,1,20.64,39.28Z"/></g></g></svg>